<?xml version="1.0" standalone="no"?>
<!DOCTYPE svg PUBLIC "-//W3C//DTD SVG 1.1//EN" "http://www.w3.org/Graphics/SVG/1.1/DTD/svg11.dtd" >
<svg xmlns="http://www.w3.org/2000/svg">
<metadata>
Created by FontForge 20120731 at Mon Oct 10 14:48:43 2016
 By admin
</metadata>
<defs>
<font id="iconfont" horiz-adv-x="1024" >
  <font-face 
    font-family="iconfont"
    font-weight="500"
    font-stretch="normal"
    units-per-em="1024"
    panose-1="2 0 6 3 0 0 0 0 0 0"
    ascent="896"
    descent="-128"
    x-height="792"
    bbox="0 -215 1154 896"
    underline-thickness="50"
    underline-position="-100"
    unicode-range="U+0078-E62F"
  />
<missing-glyph horiz-adv-x="374" 
d="M34 0v682h272v-682h-272zM68 34h204v614h-204v-614z" />
    <glyph glyph-name=".notdef" horiz-adv-x="374" 
d="M34 0v682h272v-682h-272zM68 34h204v614h-204v-614z" />
    <glyph glyph-name=".null" horiz-adv-x="0" 
 />
    <glyph glyph-name="nonmarkingreturn" horiz-adv-x="341" 
 />
    <glyph glyph-name="x" unicode="x" horiz-adv-x="1001" 
d="M281 543q-27 -1 -53 -1h-83q-18 0 -36.5 -6t-32.5 -18.5t-23 -32t-9 -45.5v-76h912v41q0 16 -0.5 30t-0.5 18q0 13 -5 29t-17 29.5t-31.5 22.5t-49.5 9h-133v-97h-438v97zM955 310v-52q0 -23 0.5 -52t0.5 -58t-10.5 -47.5t-26 -30t-33 -16t-31.5 -4.5q-14 -1 -29.5 -0.5
t-29.5 0.5h-32l-45 128h-439l-44 -128h-29h-34q-20 0 -45 1q-25 0 -41 9.5t-25.5 23t-13.5 29.5t-4 30v167h911zM163 247q-12 0 -21 -8.5t-9 -21.5t9 -21.5t21 -8.5q13 0 22 8.5t9 21.5t-9 21.5t-22 8.5zM316 123q-8 -26 -14 -48q-5 -19 -10.5 -37t-7.5 -25t-3 -15t1 -14.5
t9.5 -10.5t21.5 -4h37h67h81h80h64h36q23 0 34 12t2 38q-5 13 -9.5 30.5t-9.5 34.5q-5 19 -11 39h-368zM336 498v228q0 11 2.5 23t10 21.5t20.5 15.5t34 6h188q31 0 51.5 -14.5t20.5 -52.5v-227h-327z" />
    <glyph glyph-name="uniE600" unicode="&#xe600;" 
d="M512 896q-139 0 -257 -68.5t-186.5 -186.5t-68.5 -257t68.5 -257t186.5 -186.5t257 -68.5t257 68.5t186.5 186.5t68.5 257t-68.5 257t-186.5 186.5t-257 68.5zM576 96q0 -13 -9 -22.5t-23 -9.5h-64q-13 0 -22.5 9t-9.5 23v64q0 13 9 22.5t23 9.5h64q13 0 22.5 -9t9.5 -23
v-64zM625 368q-24 -18 -33 -32t-11 -35l-2 -13q-1 -13 -11.5 -22.5t-23.5 -9.5h-64q-13 0 -22 9.5t-7 22.5q0 1 2 13q12 64 52 104q9 8 25.5 22t24 21.5t14.5 24t7 39.5q0 22 -0.5 32.5t-2 28.5t-5.5 27.5t-11 20t-18 15t-27 4.5q-37 0 -50 -25.5t-14 -72.5q0 -12 -9.5 -21
t-23.5 -9h-63q-13 0 -22.5 9t-9.5 22v33q3 35 10.5 56.5t27.5 39t55.5 25t91.5 7.5q49 0 83.5 -4.5t56.5 -17.5t34 -25t17.5 -39.5t6.5 -46t1 -59.5q0 -84 -79 -144z" />
    <glyph glyph-name="uniE601" unicode="&#xe601;" 
d="M512 893q-104 0 -198 -40.5t-162 -108.5t-108.5 -162t-40.5 -198t40.5 -198t108.5 -162t162 -108.5t198 -40.5t198 40.5t162 108.5t108.5 162t40.5 198t-40.5 198t-108.5 162t-162 108.5t-198 40.5zM793 308v-235h-234v141h-94v-141h-234v235h-94v23l375 375l141 -140
v117h93v-211l141 -141v-23h-94z" />
    <glyph glyph-name="uniE602" unicode="&#xe602;" 
d="M862 61q-3 -2 -5 -5q62 65 96.5 149.5t34.5 178.5q0 97 -37.5 185t-101.5 152t-152 101.5t-184.5 37.5t-185 -37.5t-152 -101.5t-101 -152t-37.5 -185t37.5 -185t101 -152t152 -101.5t184.5 -37.5q171 0 302 108q-12 -10 -24.5 -19t-18.5 -13l-6 -3q2 -3 6 -8t19.5 -17.5
t34 -22t51 -17.5t70.5 -8q7 5 17.5 28t17.5 43t7 21q-25 4 -47.5 11.5t-36 15.5t-24 16t-14.5 13zM274.5 267q-48.5 0 -83 34.5t-34.5 83t34.5 83t83 34.5t83 -34.5t34.5 -83t-34.5 -83t-83 -34.5zM512 28q-49 0 -83.5 34.5t-34.5 83t34.5 83t83.5 34.5t83 -34.5t34 -83
t-34 -83t-83 -34.5zM451 384q0 25 17.5 42.5t43 17.5t43 -17.5t17.5 -42.5t-17.5 -43t-43 -18t-43 18t-17.5 43zM512 504q-49 0 -83.5 34.5t-34.5 83.5t34.5 83.5t83.5 34.5t83 -34.5t34 -83.5t-34 -83.5t-83 -34.5zM662 384.5q0 48.5 34.5 83t83.5 34.5t83.5 -34.5
t34.5 -83t-34.5 -83t-83.5 -34.5t-83.5 34.5t-34.5 83zM856 55l-6 -6zM822 23q-3 -3 -6 -5q3 2 6 5zM848 46q-3 -2 -6 -5q3 3 6 5zM838 37q-2 -2 -4 -3q2 1 4 3zM829 29l-3 -3z" />
    <glyph glyph-name="uniE603" unicode="&#xe603;" 
d="M512 896q-138 0 -256 -69t-187 -187t-69 -256t69 -256t187 -187t256 -69t256 69t187 187t69 256t-69 256t-187 187t-256 69zM672 205q-55 -64 -160 -64t-160 64q-58 67 -58 166q0 115 64 179q55 64 167 64q99 0 153 -64q58 -57 58 -166q0 -115 -64 -179zM518 563
q-74 0 -115 -51q-45 -45 -45 -134.5t45 -134.5q34 -51 109 -51q74 0 115 51q45 56 45 135q0 92 -38 140q-45 45 -116 45z" />
    <glyph glyph-name="uniE604" unicode="&#xe604;" horiz-adv-x="1285" 
d="M642 895q-104 0 -198.5 -40.5t-163 -109t-109 -163t-40.5 -198.5t40.5 -198.5t109 -163t163 -109t198.5 -40.5t199 40.5t163.5 109t109 163t40.5 198.5t-40.5 198.5t-109 163t-163.5 109t-199 40.5zM808 124h-80l-188 405q-8 16 -12 33h-2q-1 -17 -11 -73l-66 -365h-66
l94 520h84l183 -398q13 -28 15 -36h1q1 23 11 76l64 358h67z" />
    <glyph glyph-name="uniE605" unicode="&#xe605;" 
d="M512 896q-139 0 -257 -68.5t-186.5 -186.5t-68.5 -257t68.5 -257t186.5 -186.5t257 -68.5t257 68.5t186.5 186.5t68.5 257t-68.5 257t-186.5 186.5t-257 68.5zM753 143l-23 -15h-80h-276h-80q-16 9 -23 15q-15 12 -15 31q1 21 2 28q6 19 33 41q29 23 77 44q24 10 53 20
q17 6 28 27t5 38q-1 0 -3 3q-21 25 -31.5 44.5t-16.5 46.5q-10 50 3 92q19 64 77 78q15 4 29 4v0v0q14 0 29 -4q58 -14 77 -78q13 -42 3 -92q-6 -27 -16.5 -46.5t-31.5 -44.5q-2 -3 -3 -3q-6 -17 5 -38t28 -27q29 -10 53 -20q48 -21 77 -44q27 -22 33 -41q1 -7 2 -28
q0 -19 -15 -31z" />
    <glyph glyph-name="uniE606" unicode="&#xe606;" 
d="M643 463q-9 8 -20.5 8t-19.5 -8l-73 -74l-73 74q-8 8 -19.5 8t-20 -8t-8.5 -20t8 -20l46 -46h-45q-5 0 -5 -5v-46q0 -5 5 -5h84v-38h-84q-5 0 -5 -5v-46q0 -5 5 -5h84v-85q0 -12 8 -20t19.5 -8t20 8t8.5 20v85h84q5 0 5 5v46q0 5 -5 5h-84v38h84q5 0 5 5v46q0 5 -5 5h-45
l46 46q8 8 8 20t-8 20zM870 469q-28 67 -79 118.5t-117 80.5q-69 29 -144 29t-144 -29q-66 -29 -117 -80.5t-79 -118.5q-12 -27 -19 -56l-18 42q-8 16 -26 16q-6 0 -11 -2q-10 -5 -14.5 -16t0.5 -21l57 -130l1 -2v-1l1 -1l1 -2l2 -2v0l1 -1v-1h1l1 -1h1v-1q1 0 2 -1v0l1 -1
l4 -2h1h1v0q1 0 1 -1h1h1h1v0h1v0h1h1h1h2v0h2h1q1 0 2 1v0h2v1h2v0q1 0 1 1q1 0 2 1v0q2 1 4 3l106 94q9 7 9.5 19t-7.5 20q-8 10 -20 10q-11 0 -19 -7l-50 -45q21 112 108.5 185t199.5 73q130 0 222 -93t92 -224.5t-92 -224.5t-222 -93q-116 0 -204 76q-8 7 -18 7
q-13 0 -21 -10q-8 -8 -7 -20t10 -19q103 -90 240 -90q75 0 144 29q66 29 117 80.5t79 118.5q30 70 30 145.5t-30 145.5zM870 469z" />
    <glyph glyph-name="uniE607" unicode="&#xe607;" 
d="M529 65h-302v674h623v-364q4 1 11 2t23.5 -3.5t25.5 -18.5v368q0 29 -22.5 51.5t-51.5 22.5h-595q-29 0 -51.5 -22.5t-22.5 -51.5v-644q0 -30 22.5 -52.5t51.5 -22.5h308q-11 12 -16 27.5t-4 24.5v9zM344 335q-7 0 -12.5 5.5t-5.5 12.5t5.5 12.5t12.5 5.5h174
q7 0 12.5 -5.5t5.5 -12.5t-5.5 -12.5t-12.5 -5.5h-174v0zM344 221q-7 0 -12.5 5.5t-5.5 13t5.5 12.5t12.5 5h92q7 0 12.5 -5t5.5 -12.5t-5.5 -13t-12.5 -5.5h-92v0zM344 449q-7 0 -12.5 5t-5.5 12.5t5.5 13t12.5 5.5h290q7 0 12.5 -5.5t5.5 -13t-5.5 -12.5t-12.5 -5h-290v0z
M344 563q-7 0 -12.5 5t-5.5 12.5t5.5 13t12.5 5.5h380q7 0 12.5 -5.5t5.5 -13t-5.5 -12.5t-12.5 -5h-380v0zM738.5 332q-65.5 0 -112 -46.5t-46.5 -112t46.5 -112t112 -46.5t111.5 46.5t46 112t-46 112t-111.5 46.5zM712 93l-78 79l30 29l48 -48l101 100l29 -29z" />
    <glyph glyph-name="uniE608" unicode="&#xe608;" 
d="M822 513h-80q0 97 -65 163t-160 66t-160 -66t-65 -163h-81q0 78 40.5 149t112 115.5t153 44.5t153 -44.5t112 -115.5t40.5 -149zM870 381q0 33 -23.5 57t-57.5 24h-538q-33 0 -56.5 -24t-23.5 -57v-382q0 -34 23.5 -57.5t56.5 -23.5h538q34 0 57.5 23.5t23.5 57.5v382z
M585 82q0 -25 -17.5 -42.5t-42.5 -17.5h-9q-25 0 -42.5 17.5t-17.5 42.5v164q0 25 17.5 42.5t42.5 17.5h9q25 0 42.5 -17.5t17.5 -42.5v-164z" />
    <glyph glyph-name="uniE609" unicode="&#xe609;" 
d="M550 -127h-21q-16 1 -27 13.5t-10 29t13 27t29 10.5q42 -3 70 6.5t50 33.5q41 46 99 197q82 219 179 520l-508 101l-179 -491q-5 -15 -20 -22t-30.5 -1.5t-22.5 20.5t-1 30l190 523q5 14 18 21t27 4l585 -116q18 -4 27 -19t3 -32q-96 -307 -194 -566q-32 -84 -58 -136.5
t-57 -85.5q-61 -67 -162 -67zM554 -128q-22 -1 -48 4.5t-42 12.5l-15 6l-330 150q-2 1 -5.5 2t-13.5 6.5t-20 12t-22 18t-22 25t-18.5 33t-13 41.5t-3.5 51.5t9 62.5l450 -182q0 -4 -0.5 -10.5t0.5 -24.5t4.5 -34.5t12 -36t21.5 -32t35 -19.5t51 -3q20 -19 11 -48t-41 -35z
M763 513q-6 0 -11 2l-173 47q-16 4 -24 18.5t-3.5 30.5t18.5 24t30 4l173 -48q16 -4 24 -18.5t4 -29.5q-4 -13 -14.5 -21.5t-23.5 -8.5zM693 341q-7 0 -13 2l-172 57q-16 5 -23.5 19.5t-2 30.5t20 23t30.5 2l172 -56q15 -5 22.5 -20t2.5 -30q-4 -13 -14.5 -20.5t-22.5 -7.5z
M628 182q-7 0 -13 2l-172 56q-16 5 -23 20t-2 30.5t19.5 23t30.5 1.5l172 -56q16 -5 23.5 -20t1.5 -30q-4 -12 -14.5 -19.5t-22.5 -7.5zM473 597h-8l-2 1q-3 1 -4 1q-16 3 -25 17t-5.5 30t17.5 25t30 5q1 0 3 -1h2q17 -3 25.5 -17t5.5 -30q-3 -14 -14 -22.5t-25 -8.5z
M411 433h-8l-2 1q-3 0 -4 1q-16 3 -25 17t-5.5 30t17.5 25t30 5q1 0 4 -1h2q16 -3 25 -17t5 -30q-3 -14 -14 -22.5t-25 -8.5zM348 280q-4 0 -8 1l-2 1q-3 0 -4 1q-16 3 -25 17t-5.5 30t17.5 25t30 5l3 -1h3q16 -4 25 -17.5t5 -29.5q-3 -14 -14 -23t-25 -9z" />
    <glyph glyph-name="uniE60A" unicode="&#xe60a;" horiz-adv-x="1025" 
d="M132 734v-143q0 -9 6.5 -15.5t15.5 -6.5h704q10 0 16 6.5t6 15.5v143q0 9 -6 15.5t-16 6.5h-704q-9 0 -15.5 -6.5t-6.5 -15.5zM1024 458q0 9 -6.5 15.5t-15.5 6.5h-848q-9 0 -15.5 -6.5t-6.5 -15.5v-143q0 -9 6.5 -15.5t15.5 -6.5h848q9 0 15.5 6.5t6.5 15.5v143z
M713 182q0 9 -6.5 15.5t-16.5 6.5h-536q-9 0 -15.5 -6.5t-6.5 -15.5v-143q0 -9 6.5 -15.5t15.5 -6.5h536q10 0 16.5 6.5t6.5 15.5v143zM74 -92v952q0 15 -11 25.5t-26 10.5t-26 -10.5t-11 -25.5v-952q0 -15 11 -25.5t26 -10.5t26 10.5t11 25.5z" />
    <glyph glyph-name="uniE60B" unicode="&#xe60b;" 
d="M444 778q-98 0 -168 -69.5t-70 -168t70 -168t168 -69.5t168 69.5t70 168t-70 168t-168 69.5zM800 15q-7 92 -53 169.5t-120 123.5q-82 -64 -183 -64t-183 64q-73 -46 -119.5 -123.5t-52.5 -169.5h711zM627 308zM839 75h118v-59h-118v59zM793 253h164v-59h-164v59z
M708 427h249v-59h-249v59zM754 617h203v-70h-203v59v11z" />
    <glyph glyph-name="uniE60C" unicode="&#xe60c;" 
d="M512 845q-191 0 -326 -135t-135 -326t135 -326t326 -135t326 135t135 326t-135 326t-326 135zM392 122h-41v213q-37 -45 -78 -80q-14 22 -25 36q82 67 142 166h-126v37h147q7 13 13 25h42q-6 -12 -12 -25h314v-37h-334q-20 -36 -42 -68v-267zM776 258h-141v-72
q0 -63 -59 -63q-34 0 -94 1q-2 20 -7 43q50 -4 91 -4q28 0 28 30v65h-162v38h162v26l78 50h-211v37h278v-37l-104 -66v-10h141v-38zM776 560h-140v-39h-41v39h-149v-33h-41v33h-142v38h142v48h41v-48h149v48h41v-48h140v-38z" />
    <glyph glyph-name="uniE60D" unicode="&#xe60d;" 
d="M512 812q-138 0 -256 -69t-187 -187t-69 -256t69 -256t187 -187t256 -69t256 69t187 187t69 256t-69 256t-187 187t-256 69zM422 25l-262 262l109 109l153 -154l333 333l109 -109z" />
    <glyph glyph-name="uniE60E" unicode="&#xe60e;" 
d="M512 565q-223 -192 -347 -296q-13 -12 -13 -28q0 -15 10.5 -25.5t25.5 -10.5h72v-252q0 -15 10.5 -25.5t25.5 -10.5h108q15 0 25.5 10.5t10.5 25.5v144h144v-144q0 -15 10.5 -25.5t25.5 -10.5h108q15 0 25.5 10.5t10.5 25.5v252h72q15 0 25.5 10.5t10.5 25.5q0 17 -14 28
q-55 46 -141.5 120t-145.5 125z" />
    <glyph glyph-name="uniE60F" unicode="&#xe60f;" 
d="M950 154l-4 6l-9 11q-11 12 -39 36q-40 33 -74 55l-44 29l-21 10q-15 7 -33 1q-14 -5 -21 -17l-17 -24q-3 -6 -6 -11l-12 -23q-8 -17 -14 -26q-11 -21 -33 -30.5t-50 2.5q-95 53 -160 115q-94 89 -126 161q-8 12 -1.5 34.5t25.5 31.5q12 6 31.5 14t29.5 14q6 4 13.5 8
t17.5 10q0 1 3.5 3.5t3.5 3.5l3 2q18 17 9 40l-3 7q-13 31 -33 65q-17 28 -39 58q-15 19 -30.5 33.5t-23.5 18.5l-8 5q-9 4 -13 6q-22 9 -46 -1q-11 -4 -20 -8.5t-20.5 -13t-15 -11t-18.5 -15.5q-42 -34 -65 -76.5t-18 -81.5q9 -66 82 -184.5t170 -210.5t222 -161.5
t195 -78.5q74 -9 158 69q36 33 52 67q17 36 2 57zM950 154z" />
    <glyph glyph-name="uniE610" unicode="&#xe610;" 
d="M510.5 750q-88.5 0 -163.5 -43.5t-119 -118.5t-44 -164q0 -77 35 -145q20 -40 49 -72l242 -354l242 354q30 32 50 72q34 68 34 145q0 89 -43.5 164t-118.5 118.5t-163.5 43.5zM685 432q0 -72 -51.5 -123t-123.5 -51t-123 51t-51 123t51 123t123 51t123.5 -51t51.5 -123z
" />
    <glyph glyph-name="uniE611" unicode="&#xe611;" 
d="M512 256l-320 320h639z" />
    <glyph glyph-name="uniE612" unicode="&#xe612;" 
d="M366 373h292v110q0 60 -42.5 103t-103.5 43t-103.5 -43t-42.5 -103v-110zM841 318v-329q0 -23 -16 -39t-39 -16h-548q-23 0 -39 16t-16 39v329q0 23 16 39t39 16h18v110q0 105 75.5 180.5t180.5 75.5t180.5 -75.5t75.5 -180.5v-110h18q23 0 39 -16t16 -39z" />
    <glyph glyph-name="uniE613" unicode="&#xe613;" 
d="M576 105v53q54 31 91 98t37 140q0 45 -0.5 67t-4 59t-10.5 55t-21 42.5t-34 36t-51 20t-71 8.5t-71 -8.5t-51 -20t-34 -36t-21 -42.5t-10.5 -55t-4 -59t-0.5 -67q0 -73 37 -140t91 -98v-53q-107 -8 -195 -43.5t-138.5 -91t-50.5 -118.5h896q0 63 -50.5 118.5t-138.5 91
t-195 43.5z" />
    <glyph glyph-name="uniE614" unicode="&#xe614;" 
d="M288 665l365 -365l-365 -365l90 -89l454 454l-454 454z" />
    <glyph glyph-name="uniE615" unicode="&#xe615;" 
d="M517 762q19 0 32 -13l333 -333q14 -13 14 -32t-14 -32l-333 -333q-13 -13 -31.5 -13t-32 13t-13.5 32t13 32l301 301l-301 301q-13 13 -13 32t13 32t32 13zM174 762q18 0 32 -13l333 -333q13 -13 13 -32t-13 -32l-333 -333q-14 -13 -32.5 -13t-32 13t-13.5 32t14 32
l300 301l-300 301q-14 13 -14 32t13.5 32t32.5 13z" />
    <glyph glyph-name="uniE616" unicode="&#xe616;" 
d="M512 -127q103 0 196.5 39.5t162 106t109.5 159t44 194.5q-3 -119 -59 -219t-151 -158t-206 -58q-113 0 -208.5 60t-151 163t-55.5 224q0 40 -28.5 68t-68 28t-67.5 -28t-28 -68q0 -104 40.5 -198.5t109 -163t163 -109t198.5 -40.5zM512 896q-102 0 -195.5 -39.5
t-162 -106t-110 -159t-43.5 -195.5q3 119 59 219.5t150.5 158.5t206.5 58t208 -60t151.5 -163t55.5 -225q0 -39 28 -67t68 -28t68 28t28 67q0 105 -40.5 199.5t-109 163t-163 109t-199.5 40.5z" />
    <glyph glyph-name="uniE617" unicode="&#xe617;" 
d="M736 -65l-365 365l365 365l-90 89l-454 -454l454 -454z" />
    <glyph glyph-name="uniE618" unicode="&#xe618;" 
d="M999 560q0 -24 -17 -41l-430 -431q-17 -17 -41.5 -17t-41.5 17l-430 431q-18 17 -18 41t17.5 41.5t41.5 17.5t42 -18l388 -388l389 388q17 18 41.5 18t41.5 -17.5t17 -41.5z" />
    <glyph glyph-name="uniE619" unicode="&#xe619;" 
d="M759 -212h-494q-22 0 -37.5 15.5t-15.5 37.5v918q0 22 15.5 37.5t37.5 15.5h494q22 0 37.5 -15.5t15.5 -37.5v-918q0 -22 -15.5 -37.5t-37.5 -15.5zM512 -159q15 0 25 10.5t10 25t-10 25t-25 10.5t-25 -10.5t-10 -25t10 -25t25 -10.5zM759 706h-17h-460h-17v-741h17h460
h17v741z" />
    <glyph glyph-name="uniE61A" unicode="&#xe61a;" 
d="M975 715l-36 36l-427 -427l-427 427l-36 -36l427 -427l-427 -427l36 -36l427 427l427 -427l36 36l-427 427z" />
    <glyph glyph-name="uniE61B" unicode="&#xe61b;" 
d="M21 130q0 24 18 41l430 430q17 18 41.5 18t41.5 -18l430 -430q17 -17 17 -41t-17 -41.5t-41.5 -17.5t-41.5 17l-389 389l-388 -389q-18 -17 -42 -17t-41.5 17t-17.5 42zM21 130z" />
    <glyph glyph-name="uniE61C" unicode="&#xe61c;" 
d="M347 -82q-11 0 -19 7t-8 17t8 17l376 343l-376 343q-8 7 -8 17t8 17t18.5 7t18.5 -7l395 -360q7 -7 7 -17t-7 -17l-395 -360q-8 -7 -18 -7z" />
    <glyph glyph-name="uniE61D" unicode="&#xe61d;" 
d="M512 812q-212 0 -362 -150t-150 -362t150 -362t362 -150t362 150t150 362t-150 362t-362 150zM724 146q18 -18 18 -42t-18 -40q-18 -17 -42.5 -17t-39.5 17l-130 147l-130 -150q-18 -18 -42 -18t-40 18q-16 19 -16.5 42.5t16.5 39.5l137 154l-137 153q-18 21 -18 46
t18 43t42.5 18t39.5 -18l130 -150l130 150q18 18 42 18t40 -18q18 -18 18 -42.5t-18 -39.5l-137 -154z" />
    <glyph glyph-name="uniE61E" unicode="&#xe61e;" 
d="M507 16q-18 0 -31 13l-325 324q-12 13 -12 31t12 31l325 324q13 13 31 13t31 -13t13 -31t-13 -31l-293 -293l293 -293q13 -13 13 -31t-13 -31t-31 -13v0zM841 16q-18 0 -31 13l-324 324q-13 13 -13 31t13 31l324 324q13 13 31.5 13t31 -13t12.5 -31t-12 -31l-293 -293
l293 -293q13 -13 13 -31t-13 -31t-32 -13v0z" />
    <glyph glyph-name="uniE61F" unicode="&#xe61f;" 
d="M843 154q0 -6 6 -6t6 6t-6 6t-6 -6zM715 21q0 -5 3.5 -8t8 -3t8 3t3.5 8v0q0 5 -3.5 8.5t-8 3.5t-8 -3.5t-3.5 -8.5zM541 -47q0 -7 5.5 -12.5t12.5 -5.5t12 5.5t5 12.5t-5 12t-12 5t-12.5 -5t-5.5 -12zM355 -38q0 -10 6.5 -16.5t16.5 -6.5t16.5 6.5t6.5 16.5v0
q0 10 -6.5 16.5t-16.5 6.5t-16.5 -6.5t-6.5 -16.5zM189 47q0 -12 8.5 -20.5t20.5 -8.5t20.5 8.5t8.5 20.5t-8.5 20.5t-20.5 8.5t-20.5 -8.5t-8.5 -20.5zM75 191.5q0 -14.5 10 -25t24.5 -10.5t24.5 10.5t10 25t-10 24.5t-24.5 10t-24.5 -10t-10 -24.5zM32 368.5
q0 -16.5 11.5 -28.5t28.5 -12t29 12t12 28.5t-12 28.5t-29 12t-28.5 -12t-11.5 -28.5zM67 544.5q0 -19.5 13.5 -33t33 -13.5t33 13.5t13.5 33t-13.5 33t-33 13.5t-33 -13.5t-13.5 -33zM173 687q0 -22 15.5 -37.5t37 -15.5t37 15.5t15.5 37.5q0 21 -15.5 36.5t-37 15.5
t-37 -15.5t-15.5 -36.5zM329 768q0 -24 17 -41t41 -17t41 17t17 41t-17 41t-41 17t-41 -17t-17 -41zM504 773q0 -26 19 -45t45.5 -19t45 19t18.5 45q0 27 -18.5 45.5t-45 18.5t-45.5 -18.5t-19 -45.5zM665 701q0 -29 20 -49.5t49 -20.5t49.5 20.5t20.5 49.5t-20.5 49.5
t-49.5 20.5t-49 -20.5t-20 -49.5zM779 565.5q0 -31.5 22 -53.5t53 -22t53 22t22 53.5t-22 53.5t-53 22t-53 -22t-22 -53.5zM824 390q0 -34 23.5 -57.5t57.5 -23.5t57.5 23.5t23.5 57.5t-23.5 57.5t-57.5 23.5t-57.5 -23.5t-23.5 -57.5z" />
    <glyph glyph-name="uniE620" unicode="&#xe620;" 
d="M512 -36q-41 0 -84 7l-197 -119v199q-78 55 -123 135t-45 171q0 107 60 197.5t163.5 143t225.5 52.5t225.5 -52.5t163.5 -143t60 -197.5t-60 -197.5t-163.5 -143t-225.5 -52.5zM512 694q-107 0 -197.5 -45t-143 -122.5t-52.5 -169.5q0 -84 45 -156.5t123 -119.5l-2 -130
l132 80q48 -11 95 -11q107 0 197.5 45t143 123t52.5 169.5t-52.5 169t-143 122.5t-197.5 45zM736.5 301q-23.5 0 -40 16.5t-16.5 39.5t16.5 39.5t40 16.5t40 -16.5t16.5 -39.5t-16.5 -39.5t-40 -16.5zM512 301q-23 0 -39.5 16.5t-16.5 39.5t16.5 39.5t39.5 16.5t39.5 -16.5
t16.5 -39.5t-16.5 -39.5t-39.5 -16.5zM287.5 301q-23.5 0 -40 16.5t-16.5 39.5t16.5 39.5t40 16.5t40 -16.5t16.5 -39.5t-16.5 -39.5t-40 -16.5z" />
    <glyph glyph-name="uniE621" unicode="&#xe621;" 
d="M1008 426v-6q-2 -40 -27 -69q19 -35 12 -74q-9 -56 -42 -88q15 -37 0 -85q-18 -58 -52 -81q8 -29 0 -56q-5 -14 -14 -34q-34 -60 -113 -60h-172q-92 0 -188 21q-86 20 -127 30l-2 1q-7 1 -7.5 1.5t-1.5 0.5q-11 -24 -33.5 -39t-50.5 -15h-94q-39 0 -66.5 27.5t-27.5 66.5
v504q0 39 27.5 66.5t66.5 27.5h94q34 0 63 -25l-1 1q13 6 33 17q37 19 63.5 49t39 63t17.5 60.5t6 55.5q0 39 28 66.5t66 27.5q56 0 105.5 -65t49.5 -148q0 -67 -8 -103q26 -1 74.5 -2t69 -1.5t50 -2t46 -3.5t27.5 -5q44 -12 67 -43.5t23 -64.5q0 -9 -1 -16zM222 471
q0 13 -9.5 22t-22.5 9h-94q-13 0 -22 -9t-9 -22v-504q0 -13 9 -22t22 -9h94q13 0 22.5 9t9.5 22v504zM908 490q-19 5 -31.5 6.5t-86 3.5t-222.5 2q20 59 24.5 84.5t4.5 80.5q0 58 -32 104t-60 46q-14 0 -22.5 -10t-8.5 -22q-1 -43 -10.5 -84t-30.5 -82t-59 -75.5t-89 -55.5
q-1 0 -3.5 -1t-3.5 -1q-25 -8 -25 -33l1 -435q0 -22 26 -28q22 -6 146 -34q92 -20 174 -20h172q42 0 58 27q6 13 8 23q4 13 -2.5 28.5t-29.5 15.5h-49q-7 0 -11.5 4.5t-4.5 11t4.5 11t11.5 4.5h51q24 0 39.5 4.5t24 15.5t11.5 17.5t8 24.5q3 13 5 27.5t-9.5 25.5t-36.5 11
h-62q-6 0 -10.5 5t-4.5 11.5t4.5 11t10.5 4.5h75q57 0 68 68q3 19 -8 38.5t-42 19.5h-61q-7 0 -11.5 4.5t-4.5 11t4.5 11t11.5 4.5h63q60 0 62 46q1 19 1 20q0 38 -38 48zM143 -33q-19 0 -33 14t-14 33.5t14 33t33.5 13.5t33 -13.5t13.5 -33t-13.5 -33.5t-33.5 -14zM143 30
q-6 0 -11 -4.5t-5 -11t5 -11.5t11.5 -5t11 5t4.5 11.5t-4.5 11t-11.5 4.5z" />
    <glyph glyph-name="uniE622" unicode="&#xe622;" 
d="M63 415q0 29 21 50t50 21t50 -21l221 -221l433 433q20 20 49.5 20t50 -20.5t20.5 -49.5t-21 -50l-482 -483q-21 -20 -50 -20t-50 20l-271 271q-21 21 -21 50z" />
    <glyph glyph-name="uniE623" unicode="&#xe623;" 
d="M702 301h-189v245q0 15 -7.5 24.5t-21 9.5t-21 -9.5t-7.5 -24.5v-268q0 -14 10 -24t24 -10h212q15 0 24.5 7.5t9.5 21t-9.5 21t-24.5 7.5zM512 747q-91 0 -174 -35t-143 -95t-95 -143t-35 -174t35 -174t95 -143t143 -95t174 -35t174 35t143 95t95 143t35 174t-35 174
t-95 143t-143 95t-174 35zM512 -92q-106 0 -196.5 52.5t-143 143t-52.5 196.5t52.5 196.5t143 143t196.5 52.5t196.5 -52.5t143 -143t52.5 -196.5t-52.5 -196.5t-143 -143t-196.5 -52.5z" />
    <glyph glyph-name="uniE624" unicode="&#xe624;" 
d="M757 421l-416 -416h-208v208l416 416zM360 115l-117 117l-46 -45v-54h64v-64h54zM565 544q-5 0 -8 -3l-271 -271q-4 -4 -4 -9q0 -11 11 -11q5 0 9 4l271 271q3 3 3 8t-3 8t-8 3zM872 536l-83 -83l-208 208l83 83q19 19 45 19q27 0 46 -19l117 -117q19 -19 19 -46
q0 -26 -19 -45z" />
    <glyph glyph-name="uniE625" unicode="&#xe625;" 
d="M672 852v1h-480q-40 0 -68 -28t-28 -68v-832q0 -39 28 -67.5t68 -28.5h640q40 0 68 28t28 68v672zM672 762l164 -165h-132q-13 0 -23 10q-9 9 -9 22v133zM864 -75q0 -13 -9 -22q-10 -10 -23 -10h-640q-13 0 -23 10q-9 9 -9 22v832q0 14 9.5 23t22.5 9h416v-160
q0 -39 28 -67.5t68 -28.5h160v-608zM512 693h-256v-64h256v64zM512 533h-256v-64h256v64zM256 309h512v64h-512v-64zM256 149h512v64h-512v-64zM256 -11h512v64h-512v-64z" />
    <glyph glyph-name="uniE626" unicode="&#xe626;" 
d="M844 445h-12h-33h-44h-48h-43h-33h-13q-1 0 -3.5 0.5t-9 3t-9.5 7.5t-5.5 13t3.5 20q1 1 9 26.5t14.5 64t7 75.5t-18 63t-56.5 26q-2 0 -4 -1t-8 -11t-11 -28q-31 -120 -37 -130q-1 -4 -3 -8.5t-9 -16.5t-16 -23t-26.5 -26t-39.5 -27q0 -1 -11 -7.5t-26.5 -13t-24.5 -6.5
l-68 -1v-359h80v-1q78 -50 181 -58q10 -1 21 -1h21q21 -1 52.5 -1t61.5 0.5t52.5 0.5t21.5 0q33 1 53 18q8 13 30 148l32 216v7q0 4 -7 14t-21 16zM229 26q-14 3 -18 11v456q7 11 27 11v0h87q9 2 23.5 10t24.5 15l9 6q25 14 41 40.5t19 46.5l4 20q4 20 9 38t9 30.5t7.5 23
t6.5 17t5 10.5l3 6l1 2q7 10 15.5 17t17 10.5t17 5.5t16.5 2t14 -0.5t9 -1.5h4q29 -8 50 -25t30.5 -34.5t14.5 -35t6 -28t0 -11.5q1 -38 -4 -79t-10 -64l-6 -22h191q35 -9 59 -39q10 -13 14 -32t2 -32l-1 -13l-23 -165l-35 -191q-1 -5 -3.5 -10t-5 -9t-5.5 -7.5t-5.5 -6
t-5.5 -5t-5.5 -4t-5 -2.5t-4 -2t-2.5 -1l-2 -1q-9 -4 -22 -8t-22 -6l-9 -1q-214 -1 -214 -2q-33 0 -67.5 5t-51.5 10l-17 5q-9 2 -34 12t-46 18l-21 9h-84q-4 0 -7 1zM238 504q-20 0 -27 -11v0q6 11 27 11zM238 504q-21 0 -27 -11h-1v0v1q7 10 28 10zM211 493v-456v456v0v0z
M211 493v0v0zM211 493v-456h-1v456h1zM211 493h-1h1zM150 496v-457h-1v0v457v0h1zM149 39q-8 -13 -28 -13q-21 0 -28 12h1q6 -11 27 -11q9 0 16 3t10 6l2 3v0zM149 496v0v0zM149 496q-9 12 -28 12q19 0 28 -12zM149 39h-1h1zM149 496v-457h-1v457h1zM148 39h1
q-8 -12 -28 -12q-21 0 -27 11v0q6 -11 27 -11q19 0 27 12zM149 496h-1h1v0zM149 496h-1v0q-8 11 -27 11v1q19 0 28 -12zM148 496v-457q-8 -12 -27 -12q-21 0 -27 11v459q6 10 27 10q19 0 27 -11zM121 508v-1q-21 0 -27 -10v0q6 11 27 11zM121 508q-21 0 -27 -11h-1v-1v1
q7 11 28 11zM94 38v0v0zM94 497v-459v0v458v0v1zM94 497v-1v0v1zM94 496v-458h-1v458h1zM94 497v-1h-1v1h1z" />
    <glyph glyph-name="uniE627" unicode="&#xe627;" 
d="M361 6v469q0 9 -6.5 15.5t-15.5 6.5t-15 -6.5t-6 -15.5v-469q0 -9 6 -15t15 -6t15.5 6t6.5 15zM531 6v469q0 9 -6 15.5t-15 6.5t-15 -6.5t-6 -15.5v-469q0 -9 6 -15t15 -6t15 6t6 15zM147 518q-16 0 -20 -16h-1v-581q0 -36 25 -61t60 -25h597q36 0 61 25t25 61v576
q0 8 -6.5 14.5t-15 6.5t-15 -6.5t-6.5 -14.5v-576q0 -18 -12.5 -30.5t-30.5 -12.5h-597q-17 0 -29.5 12.5t-12.5 30.5v576q0 8 -6.5 14.5t-15.5 6.5zM83 624h256q1 0 1 1q10 -1 17 6l79 79h148l79 -79q7 -7 17 -6q0 -1 1 -1h256q8 0 14.5 6.5t6.5 15.5t-6.5 15t-14.5 6h-246
l-79 79q-7 7 -16 6h-1h-171q-10 1 -16 -6l-79 -79h-246q-9 0 -15 -6t-6 -15t6 -15.5t15 -6.5zM702 6v469q0 9 -6.5 15.5t-15 6.5t-15 -6.5t-6.5 -15.5v-469q0 -9 6.5 -15t15 -6t15 6t6.5 15z" />
    <glyph glyph-name="uniE628" unicode="&#xe628;" 
d="M727 37h-16v4q-17 6 -17 23.5t17 23.5v5q29 10 47.5 35.5t18.5 57.5v314q0 41 -29 70.5t-70 29.5h-464q-41 0 -70.5 -29.5t-29.5 -70.5v-314q0 -41 29.5 -70.5t70.5 -29.5h348l2 -2l1 -1l103 -102q2 -1 3 -2l4 -4q4 -4 2 -11h1v-2q0 -10 -7.5 -17.5t-18.5 -7.5h-1h-1
q-3 0 -7 2h-1l-1 1h-2l-2 2q-2 2 -4 5l-92 90h-377q-41 0 -70 29t-29 70v414q0 41 29 70t70 29h563q42 0 71 -29t29 -70v-414q0 -41 -29 -70t-71 -29zM877 221v75q33 30 33 72v314q0 41 -29.5 70.5t-70.5 29.5h-464q-36 0 -63.5 -23.5t-33.5 -59.5h-52v33q0 41 29 70t71 29
h563q41 0 70 -29t29 -70v-414q0 -36 -23.5 -63.5t-58.5 -33.5zM628 459q0 -10 -7.5 -17.5t-17.5 -7.5h-348q-11 0 -18 7.5t-7 17.5q0 11 7 18t18 7h348q10 0 17.5 -7t7.5 -18zM628 343q0 -10 -7.5 -17.5t-17.5 -7.5h-216q-11 0 -18 7.5t-7 17.5t7 17.5t18 7.5h216
q10 0 17.5 -7.5t7.5 -17.5zM628 227q0 -10 -7.5 -17.5t-17.5 -7.5h-116q-10 0 -17.5 7.5t-7.5 17.5t7.5 17.5t17.5 7.5h116q10 0 17.5 -7.5t7.5 -17.5zM711 65zM683 64.5q0 11.5 8 20t19.5 8.5t20 -8.5t8.5 -20t-8.5 -19.5t-20 -8t-19.5 8t-8 19.5z" />
    <glyph glyph-name="uniE629" unicode="&#xe629;" 
d="M514.5 807q-107.5 0 -199 -53.5t-145 -145t-53.5 -199.5q0 -62 20.5 -128.5t50 -122t71 -112.5t76 -96t72.5 -76.5t53.5 -51.5t25.5 -22q13 -10 28.5 -10t27.5 10q10 8 26 22t54 51.5t72.5 76.5t76 96t71 112.5t49.5 122t20 128.5q0 108 -53 199.5t-144.5 145t-199 53.5z
M514 310q-61 0 -104 43t-43 104t43 104t104 43t104.5 -43t43.5 -104t-43.5 -104t-104.5 -43z" />
    <glyph glyph-name="uniE62A" unicode="&#xe62a;" 
d="M887 535h-567q-22 0 -38 16t-16 38t16 38t38 16h567q23 0 38.5 -16t15.5 -38t-15.5 -38t-38.5 -16zM887 238h-567q-22 0 -38 15.5t-16 38t16 38.5t38 16h567q23 0 38.5 -16t15.5 -38.5t-15.5 -38t-38.5 -15.5zM887 -59h-567q-22 0 -38 16t-16 38t16 38t38 16h567
q23 0 38.5 -16t15.5 -38t-15.5 -38t-38.5 -16zM154 542h-48q-9 0 -16 7t-7 17v47q0 10 7 17t16 7h48q9 0 16 -7t7 -17v-47q0 -10 -7 -17t-16 -7zM154 -52h-48q-9 0 -16 7t-7 17v47q0 10 7 16.5t16 6.5h48q9 0 16 -6.5t7 -16.5v-47q0 -10 -7 -17t-16 -7zM154 258h-48
q-9 0 -16 7t-7 17v47q0 10 7 17t16 7h48q9 0 16 -7t7 -17v-47q0 -10 -7 -17t-16 -7z" />
    <glyph glyph-name="uniE62B" unicode="&#xe62b;" 
d="M477 575l-321 -354l-1 -243q0 -22 15 -37t36 -15l204 1v150q0 21 15 36t36 15h102q21 0 36 -15t15 -36v-150h204q21 0 36 15t15 37v245l-323 350q-14 16 -34.5 16t-34.5 -15zM958 382l-377 433q-28 32 -67.5 32.5t-68.5 -30.5l-381 -423q-14 -15 -14 -37.5t14 -37.5
l11 -11q14 -16 34 -16t34 16l337 371q15 16 35 16t34 -16l335 -380q14 -15 34 -15t34 16l5 5q14 16 14.5 38.5t-13.5 38.5z" />
    <glyph glyph-name="uniE62C" unicode="&#xe62c;" 
d="M956 381l-416 416v-925h-56v925l-416 -416l-41 40l457 456v17h16l2 2l2 -2h16l2 2l2 -2h16v-17l457 -456z" />
    <glyph glyph-name="uniE62D" unicode="&#xe62d;" 
d="M775 425h-526q-34 0 -58.5 -24t-24.5 -58v-349q0 -34 24.5 -58t58.5 -24h526q34 0 58.5 24t24.5 58v349q0 34 -24.5 58t-58.5 24zM547 171v-92q0 -14 -10.5 -24t-24.5 -10t-24.5 10t-10.5 24v92q-34 20 -34 60q0 29 20 49t49 20t49 -20t20 -49q0 -40 -34 -60zM339 579v37
q3 69 53.5 118.5t119.5 49.5q72 0 122.5 -51t50.5 -123v-194l70 -40v232q0 105 -71 176.5t-172 71.5q-99 0 -169.5 -69t-73.5 -171v-37h70z" />
    <glyph glyph-name="uniE62E" unicode="&#xe62e;" 
d="M825 794h-625q-26 0 -44.5 -18.5t-18.5 -45.5v-882q0 -26 18.5 -44.5t44.5 -18.5h625q26 0 44.5 18.5t18.5 44.5v882q0 27 -18.5 45.5t-44.5 18.5zM316.5 -86q-23.5 0 -40 16.5t-16.5 40t16.5 40.5t40 17t40.5 -17t17 -40.5t-17 -40t-40.5 -16.5zM316.5 110
q-23.5 0 -40 16.5t-16.5 40t16.5 40.5t40 17t40.5 -17t17 -40.5t-17 -40t-40.5 -16.5zM316.5 306q-23.5 0 -40 16.5t-16.5 40t16.5 40t40 16.5t40.5 -16.5t17 -40t-17 -40t-40.5 -16.5zM512.5 -86q-23.5 0 -40 16.5t-16.5 40t16.5 40.5t40 17t40.5 -17t17 -40.5t-17 -40
t-40.5 -16.5zM512.5 110q-23.5 0 -40 16.5t-16.5 40t16.5 40.5t40 17t40.5 -17t17 -40.5t-17 -40t-40.5 -16.5zM512.5 306q-23.5 0 -40 16.5t-16.5 40t16.5 40t40 16.5t40.5 -16.5t17 -40t-17 -40t-40.5 -16.5zM708.5 -86q-23.5 0 -40 16.5t-16.5 40t16.5 40.5t40 17
t40.5 -17t17 -40.5t-17 -40t-40.5 -16.5zM708.5 110q-23.5 0 -40 16.5t-16.5 40t16.5 40.5t40 17t40.5 -17t17 -40.5t-17 -40t-40.5 -16.5zM708.5 306q-23.5 0 -40 16.5t-16.5 40t16.5 40t40 16.5t40.5 -16.5t17 -40t-17 -40t-40.5 -16.5zM782 562q0 -12 -8.5 -20.5
t-20.5 -8.5h-478q-13 0 -21.5 8.5t-8.5 20.5v91q0 13 8.5 21.5t21.5 8.5h478q12 0 20.5 -8.5t8.5 -21.5v-91z" />
    <glyph glyph-name="uniE62F" unicode="&#xe62f;" 
d="M316 791q0 15 -10 25t-24 10h-185q-14 0 -24 -10t-10 -25v-184q0 -15 10 -25t24 -10h185q14 0 24 10t10 25v184zM635 791q0 15 -10 25t-24 10h-185q-14 0 -24 -10t-10 -25v-184q0 -15 10 -25t24 -10h185q14 0 24 10t10 25v184zM961 791q0 15 -10 25t-24 10h-185
q-14 0 -24 -10t-10 -25v-184q0 -15 10 -25t24 -10h185q14 0 24 10t10 25v184zM316 480q0 14 -10 24t-24 10h-185q-14 0 -24 -10t-10 -24v-185q0 -14 10 -24t24 -10h185q14 0 24 10t10 24v185zM635 480q0 14 -10 24t-24 10h-185q-14 0 -24 -10t-10 -24v-185q0 -14 10 -24
t24 -10h185q14 0 24 10t10 24v185zM961 480q0 14 -10 24t-24 10h-185q-14 0 -24 -10t-10 -24v-185q0 -14 10 -24t24 -10h185q14 0 24 10t10 24v185zM316 161q0 15 -10 25t-24 10h-185q-14 0 -24 -10t-10 -25v-185q0 -14 10 -24t24 -10h185q14 0 24 10t10 24v185zM635 161
q0 15 -10 25t-24 10h-185q-14 0 -24 -10t-10 -25v-185q0 -14 10 -24t24 -10h185q14 0 24 10t10 24v185zM961 161q0 15 -10 25t-24 10h-185q-14 0 -24 -10t-10 -25v-185q0 -14 10 -24t24 -10h185q14 0 24 10t10 24v185z" />
  </font>
</defs>
</svg>
